OpenSim_Sub07_EMGBaseline_GRF.mot
version=1
nRows=41
nColumns=19
inDegrees=no
endheader
time	lFx	lFy	lFz	lCOPx	lCOPy	lCOPz	rFx	rFy	rFz	rCOPx	rCOPy	rCOPz	lMx	lMy	lMz	rMx	rMy	rMz
34.14000000	1.97107180	34.68308770	2.08785124	0.41192950	0	-0.36508636	-63.53497936	763.44280568	-40.66506053	0.92847751	0	-0.44895774	0	-0.61332750	0	0	-2.04889501	0
34.15000000	-0.97169844	19.15081089	1.41364853	0.27272624	0	-0.22216639	-61.14391438	774.07882011	-40.99228835	0.92305157	0	-0.44896953	0	-0.63646513	0	0	-2.14374085	0.00000000
34.16000000	-2.70942692	8.23011585	0.03299678	0.14137911	0	-0.10439787	-58.45524898	779.94197362	-41.09488837	0.91774082	0	-0.44894645	0	-0.47521217	0	0	-2.19164861	0
34.17000000	-3.05558173	1.65670214	-1.83713082	0.04523124	0	-0.02777391	-55.60534219	781.16007787	-41.09764470	0.91258893	0	-0.44887630	0	-0.23051942	0	0	-2.23463617	-0.00000000
34.18000000	-2.80572461	-0.95927857	-2.91737594	-0.00079721	0	0.00512708	-52.64058934	778.23083369	-41.04756325	0.90764828	0	-0.44874974	0	-0.06063352	0	0	-2.20628803	0
34.19000000	-2.51563915	-1.29226725	-3.16236934	-0.01257155	0	0.01146053	-49.63451385	771.64434171	-40.78445841	0.90303350	0	-0.44856279	0	0.01188059	0	0	-2.14290358	0
34.20000000	-2.32227659	-0.83861351	-3.29973584	-0.00993107	0	0.00789294	-46.69119022	761.41658918	-40.22285429	0.89870776	0	-0.44833954	0	0.02557428	0	0	-2.16113418	0
34.21000000	-2.25034099	-0.41356502	-3.11673094	-0.00469588	0	0.00334475	-43.91802679	747.52017734	-39.44319298	0.89451664	0	-0.44811415	0	0.01749728	0	0	-2.19153823	0
34.22000000	-2.24143277	-0.26055568	-3.06359717	-0.00116907	0	0.00061663	-41.44890963	730.80042289	-38.44369466	0.89053320	0	-0.44788432	0	0.00737035	0	0	-2.17839389	0
34.23000000	-2.26493666	-0.25459421	-2.97176635	0.00029533	0	-0.00038465	-39.27751868	713.03173367	-37.05431683	0.88691329	0	-0.44764405	0	0.00133117	0	0	-2.19878061	0
34.24000000	-2.30417451	-0.30560937	-2.94779730	0.00054655	0	-0.00047291	-37.29019983	696.06183223	-35.27915702	0.88347625	0	-0.44745407	0	-0.00086989	0	0	-2.21381553	0
34.25000000	-2.40166862	-0.34670368	-2.96756331	0.00036301	0	-0.00028005	-35.29643405	681.27624469	-33.40794913	0.87988538	0	-0.44737826	0	-0.00105278	0	0	-2.11703713	0
34.26000000	-2.55498534	-0.36963411	-2.90766407	0.00014870	0	-0.00010120	-33.18068467	669.59758636	-31.68974949	0.87616316	0	-0.44740451	0	-0.00061986	0	0	-1.97157400	0
34.27000000	-2.72344078	-0.28862571	-2.87264340	0.00002422	0	-0.00000778	-31.11114590	661.27571818	-30.13279012	0.87235498	0	-0.44751269	0	-0.00022239	0	0	-1.82429641	0
34.28000000	-2.92712403	-0.09640566	-2.73392734	-0.00001968	0	0.00002041	-29.29457387	656.16257550	-28.72751822	0.86839561	0	-0.44767385	0	-0.00001593	0	0	-1.64008014	0.00000000
34.29000000	-3.18047384	0.09301339	-2.61450482	-0.00002226	0	0.00001852	-27.76244328	653.90395992	-27.57022713	0.86428017	0	-0.44782301	0	0.00004580	0	0	-1.43391591	0
34.30000000	-3.50557654	0.23762753	-2.51348594	-0.00001277	0	0.00000955	-26.23073700	654.08729365	-26.59960330	0.86005910	0	-0.44790334	0	0.00004114	0	0	-1.28557159	0
34.31000000	-3.88777604	0.30503889	-2.38430277	-0.00000443	0	0.00000282	-24.58487916	656.41328055	-25.82081799	0.85571533	0	-0.44792113	0	0.00002111	0	0	-1.14303513	0.00000000
34.32000000	-4.29180598	0.24939430	-2.29199589	-0.00000020	0	-0.00000024	-22.79661550	660.56265951	-25.16255294	0.85121233	0	-0.44786688	0	0.00000619	0	0	-0.94849979	0.00000000
34.33000000	-4.69790586	0.12377610	-2.16768967	0.00000101	0	-0.00000094	-20.85707880	666.19771110	-24.63322138	0.84664485	0	-0.44771814	0	-0.00000056	0	0	-0.78247769	0
34.34000000	-5.10362086	0.03755351	-2.05324925	0.00000086	0	-0.00000069	-18.61945967	672.99854893	-24.39825515	0.84180820	0	-0.44751565	0	-0.00000205	0	0	-0.67508582	0
34.35000000	-5.49012805	0.01876069	-1.99210678	0.00000041	0	-0.00000030	-16.26640947	680.86659828	-24.48998557	0.83676503	0	-0.44725423	0	-0.00000148	0	0	-0.53774169	0
34.36000000	-5.84569905	0.05562570	-1.96908987	0.00000006	0	-0.00000004	-14.07236429	689.57637840	-24.77289072	0.83160260	0	-0.44692008	0	-0.00000068	0	0	-0.39351563	-0.00000000
34.37000000	-6.17550681	0.10225153	-1.99321718	-0.00000012	0	0.00000009	-12.05088270	698.81300415	-25.24673823	0.82633335	0	-0.44652981	0	-0.00000037	0	0	-0.30305204	0
34.38000000	-6.45261948	0.11731738	-2.08451982	-0.00000015	0	0.00000010	-10.00721713	708.26160386	-26.09746462	0.82094011	0	-0.44614367	0	-0.00000063	0	0	-0.25694547	0
34.39000000	-6.64237789	0.17452595	-2.26229450	0.00000004	0	-0.00000001	-7.86697742	717.64372982	-27.32896550	0.81553829	0	-0.44577891	0	-0.00000122	0	0	-0.22151661	-0.00000000
34.40000000	-6.74004188	0.30385321	-2.47169889	0.00000062	0	-0.00000035	-5.71677795	726.51655483	-28.68627662	0.81030142	0	-0.44542923	0	-0.00000131	0	0	-0.22202615	0.00000000
34.41000000	-6.75063980	0.37325442	-2.75500771	0.00000166	0	-0.00000094	-3.52901159	734.33020724	-29.94658506	0.80532464	0	-0.44511160	0	0.00000081	0	0	-0.25737107	0.00000000
34.42000000	-6.68577744	0.33227470	-3.12439247	0.00000269	0	-0.00000153	-1.15204805	740.76763621	-31.00697149	0.80034495	0	-0.44482309	0	0.00000759	0	0	-0.25516532	0
34.43000000	-6.55249847	0.21695262	-3.49644964	0.00000192	0	-0.00000110	1.62787875	745.83523635	-31.90454188	0.79519014	0	-0.44454380	0	0.00002021	0	0	-0.20167428	0
34.44000000	-6.34671673	0.08315033	-3.85818962	-0.00000431	0	0.00000243	4.73437988	749.57455428	-32.77844654	0.78981882	0	-0.44425713	0	0.00003306	0	0	-0.11106002	0
34.45000000	-6.06965370	0.04623864	-4.26014080	-0.00002045	0	0.00001160	7.97318623	751.79631537	-33.63170495	0.78435046	0	-0.44395616	0	0.00002448	0	0	0.04647370	0
34.46000000	-5.76331120	0.14421757	-4.68227304	-0.00004623	0	0.00002628	11.13064519	752.43541688	-34.39974749	0.77898777	0	-0.44364232	0	-0.00005048	0	0	0.24731630	0
34.47000000	-5.45707518	0.29868987	-5.10910474	-0.00006384	0	0.00003641	14.28618855	751.90297581	-35.00852376	0.77379429	0	-0.44330342	0	-0.00024722	0	0	0.40449908	0
34.48000000	-5.13831630	0.36760587	-5.49269398	-0.00001999	0	0.00001171	17.43471679	750.96033931	-35.40895856	0.76869641	0	-0.44294511	0	-0.00056483	0	0	0.51335140	0
34.49000000	-4.78587950	0.22814724	-5.78715835	0.00018093	0	-0.00010224	20.49990189	750.54306197	-35.60343595	0.76369036	0	-0.44256712	0	-0.00079029	0	0	0.62430233	0
34.50000000	-4.39518986	-0.06262555	-6.03488128	0.00062925	0	-0.00035715	23.63253400	751.26385943	-35.69082498	0.75857048	0	-0.44216072	0	-0.00027562	0	0	0.69849884	0
34.51000000	-3.97625519	-0.37833856	-6.23116086	0.00123870	0	-0.00070478	27.07228178	753.05522580	-35.85867329	0.75286408	0	-0.44174002	0	0.00215359	0	0	0.69901597	0
34.52000000	-3.52322311	-0.68467710	-6.39692432	0.00140298	0	-0.00080155	30.61012616	755.17788758	-36.10549874	0.74666322	0	-0.44125783	0	0.00763267	0	0	0.66862507	0.00000000
34.53000000	-3.10645622	-0.90560636	-6.53639010	-0.00040546	0	0.00022062	33.91778625	756.45058410	-36.28618880	0.74028638	0	-0.44066405	0	0.01518112	0	0	0.58577106	0
34.54000000	-2.95976729	-0.97558259	-6.61369420	-0.00656021	0	0.00371423	36.99848785	756.12359280	-36.37880459	0.73385778	0	-0.43995789	0	0.01749481	0	0	0.45590895	0.00000000
